# xmcd CD database file
#
# Track frame offsets:
#	150
#	6585
#	23044
#	41598
#	60214
#	73100
#	75725
#	98379
#	122064
#	140470
#
# Disc length: 1954 seconds
#
# Revision: 0
# Processed by: cddbd v1.5PL3 Copyright (c) Steve Scherf et al.
# Submitted via: CDex 1.40Release
#
DISCID=7907a00a
DTITLE=AMP - A BATHING AMP
DYEAR=2002
DGENRE=不明
TTITLE0=TECHNIQUSE
TTITLE1=ROCK ★ STAR
TTITLE2=A BATHING AMP
TTITLE3=SKID'EM OUT
TTITLE4=KICKIN' OUT THE JAMS
TTITLE5=GUHROOVY.COM
TTITLE6=夜ノトビラ
TTITLE7=THE YEAH! SONG
TTITLE8=NEW RAGE ROCK
TTITLE9=JUMP'UP TO ERA
EXTD=YEAR: 2002
EXTT0=
EXTT1=
EXTT2=
EXTT3=
EXTT4=
EXTT5=
EXTT6=
EXTT7=
EXTT8=
EXTT9=
PLAYORDER=
